<svg width="80" height="80" viewBox="0 0 80 80" fill="none" xmlns="http://www.w3.org/2000/svg">
<path d="M40.0086 51.7651C46.4853 51.7651 51.7358 46.5147 51.7358 40.038C51.7358 33.5612 46.4853 28.3108 40.0086 28.3108C33.5319 28.3108 28.2815 33.5612 28.2815 40.038C28.2815 46.5147 33.5319 51.7651 40.0086 51.7651Z" fill="black"/>
<path d="M73.4309 38.9825L64.0492 33.9399C63.932 33.9399 63.932 33.8226 63.8147 33.7053C63.8147 33.588 63.8147 33.4708 63.8147 33.3535L69.4437 24.2063C69.6782 23.8545 69.6782 23.3854 69.4437 23.0336C69.2092 22.6818 68.8573 22.4473 68.3883 22.4473L57.7166 22.7991C57.5993 22.7991 57.482 22.7991 57.482 22.6818C57.3648 22.5646 57.3648 22.4473 57.3648 22.4473L57.5993 11.6583C57.5993 11.1892 57.3648 10.8374 57.013 10.6029C56.6611 10.3684 56.1921 10.3684 55.8402 10.6029L46.6931 16.2319C46.5758 16.2319 46.4586 16.3492 46.3413 16.2319C46.224 16.2319 46.1067 16.1146 46.1067 15.9974L41.0641 6.61567C40.7123 5.79478 39.4223 5.79478 38.9532 6.61567L33.9105 15.9974C33.9105 16.1146 33.7933 16.1146 33.676 16.2319C33.5587 16.2319 33.4415 16.2319 33.3242 16.2319L24.177 10.6029C23.8252 10.3684 23.3561 10.3684 23.0043 10.6029C22.6525 10.7202 22.418 11.1892 22.418 11.6583L22.7698 22.33C22.7698 22.4473 22.7698 22.5646 22.6525 22.6818C22.5352 22.7991 22.418 22.7991 22.418 22.7991L11.629 22.4473C11.1599 22.4473 10.8081 22.6818 10.5736 23.0336C10.339 23.3854 10.339 23.8545 10.5736 24.2063L16.2026 33.3535C16.2026 33.4708 16.2026 33.588 16.2026 33.7053C16.2026 33.8226 16.0853 33.9399 15.968 33.9399L6.58636 38.9825C6.23454 39.2171 6 39.5689 6 40.038C6 40.507 6.23454 40.8589 6.58636 41.0934L15.968 46.1361C16.0853 46.1361 16.0853 46.2533 16.2026 46.3706C16.2026 46.4879 16.2026 46.6051 16.2026 46.7224L10.5736 55.8696C10.339 56.2214 10.339 56.6905 10.5736 57.0423C10.8081 57.3941 11.1599 57.6286 11.629 57.6286L22.3007 57.2768C22.418 57.2768 22.5352 57.2768 22.5352 57.3941C22.6525 57.5114 22.6525 57.5114 22.6525 57.6286L22.418 68.4176C22.418 68.8867 22.6525 69.2385 23.0043 69.473C23.3561 69.7076 23.8252 69.7076 24.177 69.473L33.3242 63.844C33.4415 63.844 33.5587 63.7267 33.676 63.844C33.7933 63.844 33.9105 63.9613 33.9105 64.0785L38.9532 73.4602C39.1877 73.8121 39.5396 74.0466 40.0086 74.0466C40.4777 74.0466 40.8295 73.8121 41.0641 73.4602L46.1067 64.0785C46.1067 63.9613 46.224 63.9613 46.3413 63.844C46.4586 63.844 46.5758 63.844 46.6931 63.844L55.8402 69.473C56.1921 69.7076 56.6611 69.7076 57.013 69.473C57.3648 69.2385 57.5993 68.8867 57.5993 68.4176L57.2475 57.6286C57.2475 57.5114 57.2475 57.3941 57.3648 57.3941C57.482 57.2768 57.482 57.2768 57.5993 57.2768L68.271 57.6286C68.7401 57.6286 69.0919 57.3941 69.3264 57.0423C69.561 56.6905 69.561 56.2214 69.3264 55.8696L63.6974 46.7224C63.6974 46.6051 63.6974 46.4879 63.6974 46.3706C63.6974 46.2533 63.8147 46.1361 63.932 46.1361L73.3136 41.0934C73.6655 40.8589 73.9 40.507 73.9 40.038C73.9 39.5689 73.7827 39.2171 73.4309 38.9825ZM40.0086 54.1105C32.2687 54.1105 25.9361 47.7779 25.9361 40.038C25.9361 32.2981 32.2687 25.9654 40.0086 25.9654C47.7485 25.9654 54.0812 32.2981 54.0812 40.038C54.0812 47.7779 47.7485 54.1105 40.0086 54.1105Z" fill="black"/>
</svg>
