<svg width="80" height="80" viewBox="0 0 80 80" fill="none" xmlns="http://www.w3.org/2000/svg">
<path d="M24.7324 36.5283C26.3497 34.3558 27.9442 32.2136 29.5382 30.0709C29.6015 29.9858 29.6613 29.898 29.7213 29.8105C30.2261 29.0744 30.0717 28.6136 29.2041 28.3518C28.3764 28.1021 27.5393 27.8831 26.7063 27.6507C26.5704 27.6128 26.4328 27.5801 26.2983 27.5375C25.1383 27.1702 24.8181 26.3557 25.4618 25.3271C26.475 23.7083 27.5087 22.1022 28.5375 20.4932C31.7577 15.4571 34.9796 10.4222 38.201 5.38685C38.325 5.19316 38.4457 4.99715 38.5766 4.80823C39.3213 3.73337 40.4975 3.72719 41.2217 4.81011C42.0575 6.05987 42.8767 7.32074 43.6952 8.58198C46.9883 13.6569 50.2784 18.7337 53.5693 23.81C53.8773 24.285 54.1829 24.7614 54.4906 25.2366C55.2579 26.4212 55.0114 27.1351 53.6733 27.5448C52.8295 27.8032 51.9764 28.0313 51.128 28.2747C50.9583 28.3234 50.7869 28.3699 50.6232 28.4348C49.9777 28.6908 49.833 29.1117 50.2463 29.682C51.0869 30.8421 51.957 31.9808 52.8127 33.1299C55.7604 37.0882 58.7071 41.0471 61.6538 45.006C61.7383 45.1195 61.8262 45.2314 61.8995 45.3519C62.4192 46.2056 62.0944 47.0564 61.1215 47.2662C60.1229 47.4815 59.1061 47.6113 58.1025 47.8053C57.0736 48.0041 56.9197 48.4724 57.549 49.3099C60.758 53.5807 63.9597 57.8572 67.1647 62.1312C67.6847 62.8246 68.2118 63.5128 68.7295 64.208C69.1121 64.7219 69.41 65.265 69.0736 65.9184C68.7396 66.5672 68.1669 66.7281 67.4745 66.727C60.4682 66.7166 53.4618 66.7211 46.4555 66.7215C46.0662 66.7215 45.6769 66.716 45.2878 66.7234C44.3653 66.741 44.0123 67.1183 44.0187 68.031C44.0333 70.1183 44.0358 72.2057 44.0465 74.293C44.0501 74.9982 43.8801 75.6135 43.2755 76.0624C42.9125 76.332 42.4983 76.4255 42.0808 76.4365C40.6857 76.4731 39.2868 76.5628 37.8959 76.3771C37.0489 76.2641 36.4208 75.5916 36.3762 74.7257C36.2723 72.7112 36.2917 70.6949 36.3526 68.6791C36.3595 68.4493 36.3751 68.2193 36.3703 67.9897C36.3516 67.0923 35.9639 66.7138 35.0612 66.7139C27.8072 66.7139 20.5531 66.7153 13.2991 66.7163C13.0691 66.7163 12.8389 66.7094 12.6091 66.7168C11.9677 66.7376 11.4725 66.4914 11.1624 65.9205C10.8492 65.3437 11.0257 64.8228 11.3806 64.338C12.1537 63.282 12.928 62.2268 13.7121 61.1789C16.6366 57.2707 19.5653 53.3655 22.4922 49.459C22.5664 49.3599 22.6391 49.2596 22.7094 49.1577C23.1548 48.5121 22.926 47.9621 22.1428 47.8251C21.4481 47.7037 20.7494 47.6053 20.0534 47.4911C19.7231 47.4368 19.3915 47.3834 19.0665 47.305C18.0616 47.0625 17.6933 46.1835 18.266 45.3201C18.7446 44.5986 19.2771 43.9126 19.7916 43.2152C21.4295 40.9952 23.07 38.7771 24.7324 36.5283Z" fill="black"/>
</svg>